<svg width="86" height="19" viewBox="0 0 86 19" fill="none" xmlns="http://www.w3.org/2000/svg">
<path d="M15.7586 0V3.10405L11.2936 7.19364L11.246 7.23611L3.34411 14.4722H0V11.1421L4.26593 7.23611H4.35987L4.31227 7.19364L0 3.24395V0H3.43679L7.80292 3.99716L12.1678 0H15.7586Z" fill="white"/>
<path d="M15.7586 10.0653H11.3399V14.4722H15.7586V10.0653Z" fill="white"/>
<path d="M26.7799 14.4721H20.2417V0.109619H26.7799C31.2387 0.109619 34.0469 2.8535 34.0469 7.29088C34.0469 11.7283 31.2387 14.4721 26.7799 14.4721ZM26.7799 2.18897H22.5354V12.3928H26.7799C30.1025 12.3928 31.6031 10.978 31.6031 7.29088C31.6031 3.60379 30.1025 2.18897 26.7799 2.18897Z" fill="white"/>
<path d="M41.131 14.6865C37.6368 14.6865 35.3431 12.7143 35.3431 9.15587C35.3431 5.83319 37.6154 3.60379 41.0881 3.60379C44.3894 3.60379 46.6402 5.4259 46.6402 8.66283C46.6402 9.04869 46.6188 9.3488 46.5545 9.67035H37.5082C37.594 11.7283 38.6015 12.8215 41.0667 12.8215C43.2961 12.8215 44.2179 12.0927 44.2179 10.8279V10.6564H46.533V10.8494C46.533 13.1216 44.3036 14.6865 41.131 14.6865ZM41.0453 5.4259C38.6872 5.4259 37.6583 6.47629 37.5297 8.38415H44.4537V8.34128C44.4537 6.36911 43.3175 5.4259 41.0453 5.4259Z" fill="white"/>
<path d="M53.0045 13.5075C49.8319 13.5075 47.9455 11.5139 47.9455 8.55564C47.9455 5.59739 49.9177 3.60379 53.1546 3.60379C55.384 3.60379 57.0561 4.61131 57.4419 6.47629H57.5705V3.81815H59.6928V13.2288C59.6928 16.8087 57.4634 18.3307 53.9692 18.3307C50.818 18.3307 48.6315 16.8516 48.6315 14.2792H50.9252C50.9252 15.8227 51.8255 16.4014 54.0978 16.4014C56.5201 16.4014 57.399 15.7369 57.399 13.3574V10.7422H57.249C56.8631 12.3499 55.4269 13.5075 53.0045 13.5075ZM50.2821 8.55564C50.2821 10.7422 51.5683 11.5139 53.7548 11.5139C56.1129 11.5139 57.399 10.5278 57.399 8.64139V8.34128C57.399 6.5406 56.07 5.61883 53.8191 5.61883C51.5897 5.61883 50.2821 6.36911 50.2821 8.55564Z" fill="white"/>
<path d="M67.1941 14.6865C63.6999 14.6865 61.4062 12.7143 61.4062 9.15587C61.4062 5.83319 63.6785 3.60379 67.1512 3.60379C70.4524 3.60379 72.7033 5.4259 72.7033 8.66283C72.7033 9.04869 72.6819 9.3488 72.6175 9.67035H63.5713C63.657 11.7283 64.6646 12.8215 67.1298 12.8215C69.3592 12.8215 70.2809 12.0927 70.2809 10.8279V10.6564H72.5961V10.8494C72.5961 13.1216 70.3667 14.6865 67.1941 14.6865ZM67.1083 5.4259C64.7503 5.4259 63.7213 6.47629 63.5927 8.38415H70.5168V8.34128C70.5168 6.36911 69.3806 5.4259 67.1083 5.4259Z" fill="white"/>
<path d="M76.7525 14.4721H74.4373V3.81815H76.5595V7.11939H76.7096C77.0311 5.31872 78.4459 3.60379 81.147 3.60379C84.1052 3.60379 85.5629 5.59739 85.5629 8.0626V14.4721H83.2478V8.68426C83.2478 6.69066 82.3474 5.68314 80.1394 5.68314C77.8029 5.68314 76.7525 6.88359 76.7525 9.19874V14.4721Z" fill="white"/>
</svg>
