<?xml version="1.0" encoding="UTF-8"?>
<!DOCTYPE svg PUBLIC "-//W3C//DTD SVG 1.1//EN" "http://www.w3.org/Graphics/SVG/1.1/DTD/svg11.dtd">
<svg xmlns="http://www.w3.org/2000/svg" version="1.1" width="86px" height="19px" style="shape-rendering:geometricPrecision; text-rendering:geometricPrecision; image-rendering:optimizeQuality; fill-rule:evenodd; clip-rule:evenodd" xmlns:xlink="http://www.w3.org/1999/xlink">
<g><path style="opacity:0.847" fill="#fefffe" d="M -0.5,-0.5 C 1.16667,-0.5 2.83333,-0.5 4.5,-0.5C 6.5,3.5 8.5,3.5 10.5,-0.5C 12.1667,-0.5 13.8333,-0.5 15.5,-0.5C 15.0287,3.50252 13.0287,6.66919 9.5,9C 7.20799,10.2899 5.20799,11.9565 3.5,14C 2.20677,14.49 0.873441,14.6567 -0.5,14.5C -0.5,12.8333 -0.5,11.1667 -0.5,9.5C 3.5,7.5 3.5,5.5 -0.5,3.5C -0.5,2.16667 -0.5,0.833333 -0.5,-0.5 Z"/></g>
<g><path style="opacity:0.73" fill="#fefffe" d="M 19.5,-0.5 C 23.1667,-0.5 26.8333,-0.5 30.5,-0.5C 36.4963,11.127 32.8297,16.127 19.5,14.5C 19.5,9.5 19.5,4.5 19.5,-0.5 Z M 22.5,2.5 C 30.5238,1.26491 32.5238,4.09824 28.5,11C 26.5273,11.4955 24.5273,11.6621 22.5,11.5C 22.5,8.5 22.5,5.5 22.5,2.5 Z"/></g>
<g><path style="opacity:0.642" fill="#fefffe" d="M 38.5,2.5 C 46.5706,3.09285 48.5706,6.92619 44.5,14C 36.8406,16.0033 33.6739,13.17 35,5.5C 36.1451,4.36362 37.3117,3.36362 38.5,2.5 Z M 38.5,5.5 C 40.4286,5.23082 42.0953,5.73082 43.5,7C 41.5,7.66667 39.5,7.66667 37.5,7C 38.056,6.61742 38.3893,6.11742 38.5,5.5 Z M 37.5,10.5 C 39.3635,9.20719 41.3635,9.20719 43.5,10.5C 41.4844,11.6942 39.4844,11.6942 37.5,10.5 Z"/></g>
<g><path style="opacity:0.679" fill="#fefffe" d="M 56.5,18.5 C 54.8333,18.5 53.1667,18.5 51.5,18.5C 49.882,17.5489 48.5487,16.2156 47.5,14.5C 49.7476,13.676 49.9142,12.676 48,11.5C 46.2472,6.64331 47.7472,3.64331 52.5,2.5C 54.8026,3.52939 57.136,3.52939 59.5,2.5C 59.6657,6.84611 59.499,11.1794 59,15.5C 58.3021,16.6906 57.4687,17.6906 56.5,18.5 Z M 51.5,5.5 C 55.1378,4.73656 56.6378,6.0699 56,9.5C 51.4155,11.4126 49.9155,10.0793 51.5,5.5 Z M 55.5,12.5 C 56.7736,13.1894 56.7736,14.0228 55.5,15C 53.597,15.7737 51.9304,15.4404 50.5,14C 52.3817,13.8019 54.0484,13.3019 55.5,12.5 Z"/></g>
<g><path style="opacity:0.644" fill="#fefffe" d="M 64.5,2.5 C 72.5706,3.09285 74.5706,6.92619 70.5,14C 62.8406,16.0033 59.6739,13.17 61,5.5C 62.1451,4.36362 63.3117,3.36362 64.5,2.5 Z M 64.5,5.5 C 66.4286,5.23082 68.0953,5.73082 69.5,7C 67.5,7.66667 65.5,7.66667 63.5,7C 64.056,6.61742 64.3893,6.11742 64.5,5.5 Z M 63.5,10.5 C 65.3635,9.20719 67.3635,9.20719 69.5,10.5C 67.4844,11.6942 65.4844,11.6942 63.5,10.5 Z"/></g>
<g><path style="opacity:0.673" fill="#fefffe" d="M 85.5,4.5 C 85.5,7.83333 85.5,11.1667 85.5,14.5C 84.5,14.5 83.5,14.5 82.5,14.5C 82.6641,11.8127 82.4974,9.14603 82,6.5C 80.0624,5.13983 78.3957,5.47316 77,7.5C 76.5034,9.80982 76.3367,12.1432 76.5,14.5C 75.5,14.5 74.5,14.5 73.5,14.5C 73.5,10.5 73.5,6.5 73.5,2.5C 75.864,3.52939 78.1974,3.52939 80.5,2.5C 82.3002,2.90244 83.9668,3.56911 85.5,4.5 Z"/></g>
<g><path style="opacity:0.765" fill="#fefffe" d="M 10.5,9.5 C 12.1667,9.5 13.8333,9.5 15.5,9.5C 15.5,11.1667 15.5,12.8333 15.5,14.5C 13.8333,14.5 12.1667,14.5 10.5,14.5C 10.5,12.8333 10.5,11.1667 10.5,9.5 Z"/></g>
</svg>
